<?xml version="1.0" standalone="no"?>
<!DOCTYPE svg PUBLIC "-//W3C//DTD SVG 20010904//EN"
 "http://www.w3.org/TR/2001/REC-SVG-20010904/DTD/svg10.dtd">
<svg version="1.0" xmlns="http://www.w3.org/2000/svg"
 width="800.000000pt" height="800.000000pt" viewBox="0 0 800.000000 800.000000"
 preserveAspectRatio="xMidYMid meet">
<metadata>
Created by potrace 1.14, written by Peter Selinger 2001-2017
</metadata>
<g transform="translate(0.000000,800.000000) scale(0.100000,-0.100000)"
fill="#000000" stroke="none">
<path d="M0 4000 l0 -4000 4000 0 4000 0 0 4000 0 4000 -4000 0 -4000 0 0
-4000z m4000 3390 c0 -293 0 -300 -20 -300 -20 0 -20 7 -20 275 0 237 2 279
16 300 9 14 18 25 20 25 2 0 4 -135 4 -300z m58 -25 c-2 -178 -7 -280 -13
-280 -6 0 -11 108 -12 300 -2 268 -1 298 12 280 13 -16 15 -64 13 -300z m-128
-26 c0 -233 -1 -250 -17 -247 -17 3 -18 22 -18 231 -1 177 2 233 13 248 7 10
15 19 18 19 2 0 4 -113 4 -251z m200 -16 c0 -201 -2 -233 -15 -233 -13 0 -15
35 -15 252 0 224 2 250 15 232 12 -15 14 -63 15 -251z m-270 -28 c0 -176 -2
-205 -15 -205 -13 0 -15 27 -15 185 0 130 4 191 12 205 7 11 14 20 15 20 2 0
3 -92 3 -205z m340 -20 c0 -179 0 -185 -20 -185 -19 0 -20 6 -20 208 1 205 1
207 20 184 17 -20 19 -41 20 -207z m-406 83 c0 -29 -2 -101 -2 -160 -2 -89 -5
-108 -17 -108 -22 0 -22 266 1 298 8 12 16 22 17 22 2 0 2 -24 1 -52z m466
-125 c0 -120 -2 -143 -15 -143 -13 0 -15 25 -15 163 1 145 2 160 15 143 12
-15 15 -53 15 -163z m-530 -28 c0 -96 -3 -115 -15 -115 -12 0 -15 17 -15 96 0
83 10 134 25 134 3 0 5 -52 5 -115z m590 86 c5 -11 10 -60 10 -110 0 -74 -3
-91 -15 -91 -10 0 -15 10 -16 28 -5 199 -3 217 21 173z m-660 -131 c0 -56 -3
-70 -15 -70 -11 0 -15 12 -15 50 0 41 15 90 27 90 2 0 3 -31 3 -70z m734 -12
c1 -43 -2 -53 -16 -56 -16 -3 -18 5 -18 69 0 68 1 72 17 57 10 -11 16 -35 17
-70z m-794 -38 c0 -13 -7 -20 -20 -20 -18 0 -19 2 -8 20 7 11 16 20 20 20 5 0
8 -9 8 -20z m860 -16 c0 -8 -6 -11 -15 -8 -8 4 -15 15 -15 26 0 17 3 18 15 8
8 -7 15 -19 15 -26z m-1339 -252 c-21 -39 -30 -41 -281 -38 -135 2 -252 0
-261 -5 -9 -4 -44 -58 -79 -119 -35 -60 -66 -110 -69 -110 -3 0 -14 7 -25 15
-17 13 -17 16 17 72 19 32 53 91 76 131 l42 72 295 0 c283 0 294 -1 285 -18z
m1523 -4 c9 -12 16 -25 16 -28 0 -3 -23 -5 -50 -6 -38 0 -49 3 -46 13 6 16 3
16 -65 2 -73 -14 -886 -14 -958 0 -68 14 -82 14 -78 -1 2 -10 -78 -14 -171 -9
-9 1 -8 7 4 26 l16 25 659 0 658 0 15 -22z m870 -25 c13 -27 45 -83 70 -126
25 -43 46 -82 46 -87 0 -5 -9 -14 -20 -20 -17 -9 -25 0 -79 92 -33 57 -64 109
-68 115 -6 10 -83 13 -307 15 -283 2 -300 4 -318 22 -10 11 -18 23 -18 28 0 4
151 8 335 8 l335 0 24 -47z m-1899 -194 c76 -13 217 -50 211 -56 -2 -2 -22 1
-45 7 -49 13 -223 30 -234 23 -9 -6 7 -13 266 -118 87 -36 166 -69 176 -74 14
-8 61 8 202 65 101 41 208 84 236 96 29 11 51 24 48 28 -5 8 -82 3 -174 -11
-94 -15 -85 -4 17 20 119 28 254 41 330 32 71 -8 81 -15 64 -41 -19 -31 15
-46 183 -79 200 -39 240 -56 214 -88 -19 -22 -69 -25 -187 -8 -65 9 -159 15
-212 13 -104 -3 -94 -10 45 -28 116 -15 261 -63 336 -111 32 -21 59 -40 59
-43 0 -2 -30 11 -67 30 -155 76 -365 113 -545 94 -57 -6 -119 -14 -136 -19
-18 -5 -32 -8 -32 -6 0 2 29 25 65 50 36 26 65 48 65 51 0 5 -31 -7 -259 -105
-113 -49 -213 -91 -222 -92 -8 -2 -38 6 -65 18 -27 12 -83 36 -124 54 -41 17
-95 40 -120 52 -100 45 -180 76 -175 67 4 -6 33 -28 66 -51 33 -22 59 -42 57
-44 -2 -2 -30 3 -63 12 -40 9 -111 15 -210 15 -130 0 -163 -3 -250 -26 -55
-14 -140 -46 -190 -70 -67 -33 -82 -38 -60 -20 84 70 275 137 424 150 42 4 83
10 91 15 26 15 -197 10 -309 -7 -113 -17 -181 -9 -181 21 0 25 58 46 194 71
72 13 150 31 174 40 41 15 54 36 31 50 -18 11 6 27 53 35 48 8 163 3 253 -12z
m681 -790 c55 -11 111 -56 101 -82 -3 -8 -22 -22 -42 -31 -39 -19 -72 -18
-157 5 -39 10 -57 9 -117 -5 -66 -16 -76 -16 -138 -1 -56 13 -76 14 -113 5
-84 -23 -132 -23 -167 -1 -55 34 -36 78 44 106 46 16 509 19 589 4z m-966
-218 c38 -10 39 -61 3 -114 -54 -78 -192 -167 -284 -182 -57 -10 -93 15 -86
59 15 95 107 203 196 230 49 15 129 19 171 7z m1581 -27 c78 -43 149 -147 149
-219 0 -29 -5 -37 -27 -46 -100 -38 -341 118 -367 237 -11 50 21 65 127 59 49
-3 81 -11 118 -31z m-2829 -309 c-271 -290 -482 -699 -566 -1095 -41 -192 -63
-453 -27 -320 27 103 56 181 101 275 67 141 86 159 38 35 -54 -138 -91 -291
-117 -475 -21 -154 -40 -372 -42 -479 -1 -85 -12 -45 -44 174 -22 142 -28 225
-32 440 -7 352 14 530 89 762 33 102 46 123 29 46 -14 -62 -42 -290 -36 -296
2 -3 6 1 8 9 87 308 220 549 433 786 63 70 217 213 230 213 3 0 -26 -34 -64
-75z m3942 -53 c226 -219 405 -502 481 -757 38 -127 44 -139 44 -90 1 48 -24
226 -39 274 -16 57 -4 47 19 -15 122 -324 143 -803 59 -1329 l-22 -140 -7 70
c-4 39 -12 140 -19 225 -22 288 -78 557 -154 740 -19 47 -28 76 -20 65 35 -45
124 -246 150 -337 15 -54 32 -98 36 -98 19 0 -19 255 -67 446 -64 257 -197
543 -353 764 -40 56 -165 215 -181 230 -3 3 -22 23 -41 45 l-35 39 35 -28 c19
-15 71 -62 114 -104z m-4536 57 c13 -22 22 -43 19 -45 -2 -3 -185 -5 -406 -4
-220 0 -401 -2 -401 -5 0 -7 17 -30 288 -397 113 -153 208 -278 212 -278 4 0
47 69 95 153 136 235 150 256 99 141 -15 -33 -39 -95 -54 -139 -16 -44 -45
-109 -65 -145 -31 -54 -35 -68 -25 -88 11 -26 3 -122 -11 -122 -4 0 -32 35
-63 78 -30 42 -71 95 -90 116 -20 22 -36 43 -36 48 0 5 -46 70 -102 146 -55
75 -123 166 -149 202 -26 36 -97 133 -158 215 -61 83 -111 153 -111 158 0 4
210 7 468 7 l467 0 23 -41z m5998 16 c-16 -25 -155 -214 -341 -464 -55 -74
-125 -170 -155 -212 -30 -43 -89 -122 -130 -176 l-74 -98 -14 50 c-11 37 -12
53 -3 67 17 27 14 43 -20 100 -18 29 -42 82 -54 118 -13 36 -39 103 -59 149
-20 47 -35 86 -33 87 1 1 49 -79 107 -179 58 -99 110 -182 115 -183 6 -2 35
31 66 74 173 238 355 484 394 534 25 32 45 60 45 63 0 3 -182 5 -405 5 -223 0
-405 2 -405 5 0 3 9 24 20 45 l20 40 471 0 471 0 -16 -25z m-5940 -173 c-17
-16 -18 -16 -5 5 7 12 15 20 18 17 3 -2 -3 -12 -13 -22z m4945 1 c23 -47 22
-49 -5 -14 -29 38 -30 41 -18 41 5 0 15 -12 23 -27z m-4971 -43 c-6 -11 -13
-20 -16 -20 -2 0 0 9 6 20 6 11 13 20 16 20 2 0 0 -9 -6 -20z m2800 -309 c234
-58 390 -154 482 -295 40 -62 48 -100 24 -109 -18 -7 -25 2 -62 76 -35 70 -88
125 -150 157 -62 30 -196 40 -241 17 -23 -12 -70 -18 -172 -21 -77 -3 -150
-10 -161 -16 -16 -9 -30 -9 -53 0 -18 6 -92 13 -165 16 -103 3 -141 8 -170 22
-31 16 -49 18 -114 11 -137 -13 -223 -71 -279 -189 -22 -46 -40 -70 -51 -70
-28 0 -30 17 -8 66 72 165 297 300 577 349 121 22 433 13 543 -14z m-658 -221
c28 -55 23 -98 -17 -154 -34 -48 -62 -143 -51 -172 3 -8 1 -14 -3 -14 -5 0
-19 28 -30 62 -35 104 -24 213 30 289 26 38 49 34 71 -11z m777 -1 c56 -76 62
-200 15 -305 l-17 -39 -8 64 c-6 49 -17 77 -43 115 -18 28 -37 61 -41 73 -12
41 27 133 56 133 5 0 22 -18 38 -41z m-938 -48 c12 -54 -9 -155 -51 -247 -84
-181 -119 -304 -121 -419 -1 -67 -1 -69 -14 -40 -8 17 -24 73 -37 125 -31 128
-33 336 -4 423 25 77 80 153 140 194 58 39 71 34 87 -36z m318 -5 c13 -35 13
-41 -15 -98 -20 -41 -29 -76 -29 -109 0 -27 -1 -49 -3 -49 -2 0 -14 25 -28 55
-34 73 -35 163 -4 224 20 40 22 42 43 28 12 -8 28 -31 36 -51z m779 50 c34
-18 92 -79 120 -127 73 -123 73 -366 -1 -609 l-13 -45 -7 81 c-10 116 -39 219
-99 353 -60 135 -78 197 -78 266 0 49 20 95 41 95 6 0 22 -6 37 -14z m-306
-43 c27 -62 21 -148 -15 -218 l-26 -50 -1 55 c0 40 -7 69 -26 104 -29 54 -28
104 2 137 27 30 44 23 66 -28z m-322 -75 c0 -63 -29 -138 -54 -138 -22 0 -56
81 -56 131 0 46 18 77 55 97 33 18 55 -18 55 -90z m148 86 c28 -19 52 -65 52
-99 0 -14 -12 -51 -26 -81 -22 -48 -28 -53 -42 -42 -24 20 -52 89 -52 131 0
40 23 107 37 107 5 0 19 -7 31 -16z m-2976 -149 c8 -18 8 -28 -1 -39 -13 -15
3 -54 48 -121 24 -35 26 -54 7 -80 -12 -17 -18 -9 -70 83 l-58 101 23 41 c26
46 35 49 51 15z m5787 -9 c12 -18 21 -40 21 -47 -1 -19 -95 -182 -108 -187 -6
-2 -16 6 -22 18 -9 18 -5 32 30 93 35 60 40 75 31 94 -8 17 -8 29 1 43 17 27
23 25 47 -14z m-4540 -661 c38 -213 123 -488 141 -454 4 8 10 55 14 104 7 107
35 229 62 276 22 38 58 48 95 29 l22 -12 -5 113 c-4 79 -11 132 -26 174 -11
33 -19 61 -17 63 9 10 68 -101 90 -172 48 -149 58 -240 51 -466 -7 -238 -23
-354 -25 -179 -2 194 -34 352 -81 394 -27 24 -48 13 -71 -40 -40 -90 -53 -187
-53 -405 0 -216 18 -361 65 -531 11 -39 18 -73 16 -76 -6 -6 -116 257 -160
382 -94 264 -144 481 -177 755 -11 96 -14 399 -3 427 4 10 14 -40 24 -122 9
-77 27 -194 38 -260z m3320 209 c2 -268 -60 -614 -167 -940 -44 -132 -191
-498 -198 -491 -1 1 10 47 26 102 15 55 35 143 45 195 22 121 32 455 16 569
-34 256 -114 315 -167 124 -10 -38 -18 -123 -23 -243 l-6 -185 -15 105 c-23
161 -19 439 9 565 21 100 78 236 119 285 20 23 19 20 -4 -38 -28 -71 -50 -221
-40 -274 6 -35 7 -36 37 -25 20 8 35 8 47 1 45 -27 85 -166 99 -340 3 -51 10
-81 15 -76 19 19 77 191 102 302 24 109 67 365 82 495 l8 60 7 -45 c4 -25 8
-91 8 -146z m-2469 -47 c17 -43 43 -126 57 -185 23 -93 27 -128 27 -272 1
-157 -1 -171 -34 -295 -31 -118 -34 -142 -34 -265 0 -157 15 -210 85 -310 34
-49 149 -153 149 -136 0 3 -24 43 -53 88 -30 46 -63 106 -75 135 -44 104 -63
256 -42 338 l8 30 1 -36 c2 -61 39 -190 77 -267 186 -380 825 -449 1128 -121
81 87 156 258 156 355 0 16 5 36 10 44 17 26 12 -177 -6 -249 -21 -84 -72
-192 -123 -258 -54 -70 -29 -69 46 1 76 71 118 142 144 246 27 107 22 206 -20
375 -41 169 -53 290 -41 417 12 113 40 245 69 323 25 65 61 145 66 145 2 0 -5
-28 -16 -62 -45 -148 -63 -285 -63 -483 -1 -207 10 -286 64 -468 56 -188 62
-344 18 -486 -106 -347 -446 -550 -886 -528 -332 16 -608 176 -721 418 -86
183 -93 362 -25 599 79 272 86 575 19 870 -13 58 -26 114 -30 125 -18 52 17
-16 45 -88z m1099 -707 c-26 -60 -82 -113 -158 -149 -50 -23 -68 -26 -166 -26
-102 0 -115 2 -175 31 -76 36 -124 82 -153 144 -20 42 -21 63 -21 347 -1 165
2 299 5 297 4 -2 9 -22 13 -45 10 -61 68 -182 101 -207 35 -28 62 -15 71 35 6
33 8 35 20 19 7 -10 22 -50 34 -89 32 -105 50 -122 69 -64 6 19 17 76 24 128
l13 94 6 -85 c7 -96 26 -165 47 -165 8 0 22 23 32 55 36 107 51 140 60 134 5
-3 9 -16 9 -29 0 -13 7 -30 15 -39 22 -21 57 -4 90 45 27 42 74 170 77 216 2
15 4 -113 5 -285 3 -300 2 -315 -18 -362z m272 23 c28 -114 31 -274 7 -354
-21 -65 -73 -138 -123 -169 -41 -26 -51 -21 -66 29 -15 49 -1 116 47 225 63
143 85 217 91 305 7 97 14 92 44 -36z m-1140 -53 c6 -30 32 -107 59 -170 26
-63 53 -130 59 -149 16 -49 14 -123 -5 -149 -14 -20 -17 -21 -43 -8 -40 21
-99 90 -123 144 -41 93 -35 292 14 457 l12 40 8 -55 c4 -30 13 -80 19 -110z
m910 -247 c16 -58 16 -136 0 -185 -13 -41 -51 -80 -67 -70 -37 24 -45 106 -14
145 30 38 50 91 50 132 0 48 14 37 31 -22z m-668 -91 c13 -21 27 -47 31 -60 9
-27 -9 -85 -31 -103 -13 -11 -19 -9 -38 15 -46 58 -58 156 -28 242 l17 49 12
-53 c7 -29 23 -70 37 -90z m113 75 c0 -23 11 -61 22 -84 28 -54 28 -76 -3
-110 -25 -27 -25 -28 -40 -8 -23 30 -37 91 -29 133 6 31 39 112 47 112 1 0 2
-19 3 -43z m407 -15 c21 -52 22 -112 3 -156 -19 -46 -35 -54 -58 -26 -23 29
-23 71 2 120 11 22 20 58 20 82 0 48 9 42 33 -20z m-260 -17 c21 -45 22 -114
2 -143 -15 -20 -18 -21 -39 -7 -25 16 -46 55 -46 83 1 29 38 102 53 102 7 0
21 -16 30 -35z m140 0 c31 -65 17 -128 -34 -155 -17 -10 -21 -6 -34 24 -20 46
-19 72 5 124 23 51 41 53 63 7z m-2636 -34 c24 -35 26 -34 23 12 -1 23 2 27
24 27 27 0 50 -20 79 -69 l18 -31 -154 0 -154 0 -6 29 c-3 15 -3 38 0 50 5 20
11 22 76 19 69 -3 72 -4 94 -37z m5045 2 l3 -38 23 38 24 37 104 0 104 0 0
-50 0 -50 -185 0 c-102 0 -185 2 -185 5 0 8 30 56 48 78 8 9 25 17 38 17 19 0
23 -6 26 -37z"/>
</g>
</svg>
